<svg id="visual" viewBox="0 0 1920 540" width="1920" height="540" xmlns="http://www.w3.org/2000/svg" xmlns:xlink="http://www.w3.org/1999/xlink" version="1.1"><path d="M0 212L45.7 201.8C91.3 191.7 182.7 171.3 274.2 164.5C365.7 157.7 457.3 164.3 548.8 173.8C640.3 183.3 731.7 195.7 823 193.8C914.3 192 1005.7 176 1097 173.8C1188.3 171.7 1279.7 183.3 1371.2 189C1462.7 194.7 1554.3 194.3 1645.8 195.7C1737.3 197 1828.7 200 1874.3 201.5L1920 203L1920 0L1874.3 0C1828.7 0 1737.3 0 1645.8 0C1554.3 0 1462.7 0 1371.2 0C1279.7 0 1188.3 0 1097 0C1005.7 0 914.3 0 823 0C731.7 0 640.3 0 548.8 0C457.3 0 365.7 0 274.2 0C182.7 0 91.3 0 45.7 0L0 0Z" fill="#ca6dff"></path><path d="M0 136L45.7 140.2C91.3 144.3 182.7 152.7 274.2 156.3C365.7 160 457.3 159 548.8 156.5C640.3 154 731.7 150 823 152.2C914.3 154.3 1005.7 162.7 1097 159C1188.3 155.3 1279.7 139.7 1371.2 137.2C1462.7 134.7 1554.3 145.3 1645.8 145.2C1737.3 145 1828.7 134 1874.3 128.5L1920 123L1920 0L1874.3 0C1828.7 0 1737.3 0 1645.8 0C1554.3 0 1462.7 0 1371.2 0C1279.7 0 1188.3 0 1097 0C1005.7 0 914.3 0 823 0C731.7 0 640.3 0 548.8 0C457.3 0 365.7 0 274.2 0C182.7 0 91.3 0 45.7 0L0 0Z" fill="#b256f8"></path><path d="M0 91L45.7 96.2C91.3 101.3 182.7 111.7 274.2 117.7C365.7 123.7 457.3 125.3 548.8 122.8C640.3 120.3 731.7 113.7 823 114.2C914.3 114.7 1005.7 122.3 1097 126.2C1188.3 130 1279.7 130 1371.2 124.7C1462.7 119.3 1554.3 108.7 1645.8 110C1737.3 111.3 1828.7 124.7 1874.3 131.3L1920 138L1920 0L1874.3 0C1828.7 0 1737.3 0 1645.8 0C1554.3 0 1462.7 0 1371.2 0C1279.7 0 1188.3 0 1097 0C1005.7 0 914.3 0 823 0C731.7 0 640.3 0 548.8 0C457.3 0 365.7 0 274.2 0C182.7 0 91.3 0 45.7 0L0 0Z" fill="#983ff2"></path><path d="M0 75L45.7 76.7C91.3 78.3 182.7 81.7 274.2 79.2C365.7 76.7 457.3 68.3 548.8 64.7C640.3 61 731.7 62 823 61.2C914.3 60.3 1005.7 57.7 1097 57.8C1188.3 58 1279.7 61 1371.2 66.3C1462.7 71.7 1554.3 79.3 1645.8 84.2C1737.3 89 1828.7 91 1874.3 92L1920 93L1920 0L1874.3 0C1828.7 0 1737.3 0 1645.8 0C1554.3 0 1462.7 0 1371.2 0C1279.7 0 1188.3 0 1097 0C1005.7 0 914.3 0 823 0C731.7 0 640.3 0 548.8 0C457.3 0 365.7 0 274.2 0C182.7 0 91.3 0 45.7 0L0 0Z" fill="#7927ec"></path><path d="M0 51L45.7 48.7C91.3 46.3 182.7 41.7 274.2 39.8C365.7 38 457.3 39 548.8 39.8C640.3 40.7 731.7 41.3 823 41.2C914.3 41 1005.7 40 1097 40C1188.3 40 1279.7 41 1371.2 42.8C1462.7 44.7 1554.3 47.3 1645.8 48.7C1737.3 50 1828.7 50 1874.3 50L1920 50L1920 0L1874.3 0C1828.7 0 1737.3 0 1645.8 0C1554.3 0 1462.7 0 1371.2 0C1279.7 0 1188.3 0 1097 0C1005.7 0 914.3 0 823 0C731.7 0 640.3 0 548.8 0C457.3 0 365.7 0 274.2 0C182.7 0 91.3 0 45.7 0L0 0Z" fill="#5107e6"></path></svg>