<svg id="visual" viewBox="0 0 1920 540" width="1920" height="540" xmlns="http://www.w3.org/2000/svg" xmlns:xlink="http://www.w3.org/1999/xlink" version="1.1"><path d="M0 327L45.7 334.2C91.3 341.3 182.7 355.7 274.2 356.2C365.7 356.7 457.3 343.3 548.8 344.5C640.3 345.7 731.7 361.3 823 362.7C914.3 364 1005.7 351 1097 351.8C1188.3 352.7 1279.7 367.3 1371.2 368.8C1462.7 370.3 1554.3 358.7 1645.8 359.8C1737.3 361 1828.7 375 1874.3 382L1920 389L1920 541L1874.3 541C1828.7 541 1737.3 541 1645.8 541C1554.3 541 1462.7 541 1371.2 541C1279.7 541 1188.3 541 1097 541C1005.7 541 914.3 541 823 541C731.7 541 640.3 541 548.8 541C457.3 541 365.7 541 274.2 541C182.7 541 91.3 541 45.7 541L0 541Z" fill="#fa7268"></path><path d="M0 370L45.7 376.8C91.3 383.7 182.7 397.3 274.2 405C365.7 412.7 457.3 414.3 548.8 409.8C640.3 405.3 731.7 394.7 823 391.2C914.3 387.7 1005.7 391.3 1097 391.5C1188.3 391.7 1279.7 388.3 1371.2 389.8C1462.7 391.3 1554.3 397.7 1645.8 398.8C1737.3 400 1828.7 396 1874.3 394L1920 392L1920 541L1874.3 541C1828.7 541 1737.3 541 1645.8 541C1554.3 541 1462.7 541 1371.2 541C1279.7 541 1188.3 541 1097 541C1005.7 541 914.3 541 823 541C731.7 541 640.3 541 548.8 541C457.3 541 365.7 541 274.2 541C182.7 541 91.3 541 45.7 541L0 541Z" fill="#df5169"></path><path d="M0 419L45.7 415.8C91.3 412.7 182.7 406.3 274.2 406.3C365.7 406.3 457.3 412.7 548.8 415.7C640.3 418.7 731.7 418.3 823 421.7C914.3 425 1005.7 432 1097 434.8C1188.3 437.7 1279.7 436.3 1371.2 435.7C1462.7 435 1554.3 435 1645.8 433.7C1737.3 432.3 1828.7 429.7 1874.3 428.3L1920 427L1920 541L1874.3 541C1828.7 541 1737.3 541 1645.8 541C1554.3 541 1462.7 541 1371.2 541C1279.7 541 1188.3 541 1097 541C1005.7 541 914.3 541 823 541C731.7 541 640.3 541 548.8 541C457.3 541 365.7 541 274.2 541C182.7 541 91.3 541 45.7 541L0 541Z" fill="#bf326b"></path><path d="M0 468L45.7 465C91.3 462 182.7 456 274.2 452.3C365.7 448.7 457.3 447.3 548.8 450C640.3 452.7 731.7 459.3 823 463C914.3 466.7 1005.7 467.3 1097 467.8C1188.3 468.3 1279.7 468.7 1371.2 469.2C1462.7 469.7 1554.3 470.3 1645.8 472.5C1737.3 474.7 1828.7 478.3 1874.3 480.2L1920 482L1920 541L1874.3 541C1828.7 541 1737.3 541 1645.8 541C1554.3 541 1462.7 541 1371.2 541C1279.7 541 1188.3 541 1097 541C1005.7 541 914.3 541 823 541C731.7 541 640.3 541 548.8 541C457.3 541 365.7 541 274.2 541C182.7 541 91.3 541 45.7 541L0 541Z" fill="#99186b"></path><path d="M0 501L45.7 502.5C91.3 504 182.7 507 274.2 505.5C365.7 504 457.3 498 548.8 498C640.3 498 731.7 504 823 504.3C914.3 504.7 1005.7 499.3 1097 494.8C1188.3 490.3 1279.7 486.7 1371.2 487.2C1462.7 487.7 1554.3 492.3 1645.8 494.7C1737.3 497 1828.7 497 1874.3 497L1920 497L1920 541L1874.3 541C1828.7 541 1737.3 541 1645.8 541C1554.3 541 1462.7 541 1371.2 541C1279.7 541 1188.3 541 1097 541C1005.7 541 914.3 541 823 541C731.7 541 640.3 541 548.8 541C457.3 541 365.7 541 274.2 541C182.7 541 91.3 541 45.7 541L0 541Z" fill="#6e0568"></path></svg>