<svg id="visual" viewBox="0 0 360 500" width="360" height="500" xmlns="http://www.w3.org/2000/svg" xmlns:xlink="http://www.w3.org/1999/xlink" version="1.1"><rect x="0" y="0" width="360" height="500" fill="#001220"></rect><defs><linearGradient id="grad1_0" x1="0%" y1="0%" x2="100%" y2="100%"><stop offset="30%" stop-color="#fbae3c" stop-opacity="1"></stop><stop offset="70%" stop-color="#fbae3c" stop-opacity="1"></stop></linearGradient></defs><defs><linearGradient id="grad1_1" x1="0%" y1="0%" x2="100%" y2="100%"><stop offset="30%" stop-color="#fbae3c" stop-opacity="1"></stop><stop offset="70%" stop-color="#f48350" stop-opacity="1"></stop></linearGradient></defs><defs><linearGradient id="grad1_2" x1="0%" y1="0%" x2="100%" y2="100%"><stop offset="30%" stop-color="#d96162" stop-opacity="1"></stop><stop offset="70%" stop-color="#f48350" stop-opacity="1"></stop></linearGradient></defs><defs><linearGradient id="grad1_3" x1="0%" y1="0%" x2="100%" y2="100%"><stop offset="30%" stop-color="#d96162" stop-opacity="1"></stop><stop offset="70%" stop-color="#af4b6d" stop-opacity="1"></stop></linearGradient></defs><defs><linearGradient id="grad1_4" x1="0%" y1="0%" x2="100%" y2="100%"><stop offset="30%" stop-color="#7c3e6b" stop-opacity="1"></stop><stop offset="70%" stop-color="#af4b6d" stop-opacity="1"></stop></linearGradient></defs><defs><linearGradient id="grad1_5" x1="0%" y1="0%" x2="100%" y2="100%"><stop offset="30%" stop-color="#7c3e6b" stop-opacity="1"></stop><stop offset="70%" stop-color="#49335c" stop-opacity="1"></stop></linearGradient></defs><defs><linearGradient id="grad1_6" x1="0%" y1="0%" x2="100%" y2="100%"><stop offset="30%" stop-color="#1d2540" stop-opacity="1"></stop><stop offset="70%" stop-color="#49335c" stop-opacity="1"></stop></linearGradient></defs><defs><linearGradient id="grad1_7" x1="0%" y1="0%" x2="100%" y2="100%"><stop offset="30%" stop-color="#1d2540" stop-opacity="1"></stop><stop offset="70%" stop-color="#001220" stop-opacity="1"></stop></linearGradient></defs><defs><linearGradient id="grad2_0" x1="0%" y1="0%" x2="100%" y2="100%"><stop offset="30%" stop-color="#fbae3c" stop-opacity="1"></stop><stop offset="70%" stop-color="#fbae3c" stop-opacity="1"></stop></linearGradient></defs><defs><linearGradient id="grad2_1" x1="0%" y1="0%" x2="100%" y2="100%"><stop offset="30%" stop-color="#f48350" stop-opacity="1"></stop><stop offset="70%" stop-color="#fbae3c" stop-opacity="1"></stop></linearGradient></defs><defs><linearGradient id="grad2_2" x1="0%" y1="0%" x2="100%" y2="100%"><stop offset="30%" stop-color="#f48350" stop-opacity="1"></stop><stop offset="70%" stop-color="#d96162" stop-opacity="1"></stop></linearGradient></defs><defs><linearGradient id="grad2_3" x1="0%" y1="0%" x2="100%" y2="100%"><stop offset="30%" stop-color="#af4b6d" stop-opacity="1"></stop><stop offset="70%" stop-color="#d96162" stop-opacity="1"></stop></linearGradient></defs><defs><linearGradient id="grad2_4" x1="0%" y1="0%" x2="100%" y2="100%"><stop offset="30%" stop-color="#af4b6d" stop-opacity="1"></stop><stop offset="70%" stop-color="#7c3e6b" stop-opacity="1"></stop></linearGradient></defs><defs><linearGradient id="grad2_5" x1="0%" y1="0%" x2="100%" y2="100%"><stop offset="30%" stop-color="#49335c" stop-opacity="1"></stop><stop offset="70%" stop-color="#7c3e6b" stop-opacity="1"></stop></linearGradient></defs><defs><linearGradient id="grad2_6" x1="0%" y1="0%" x2="100%" y2="100%"><stop offset="30%" stop-color="#49335c" stop-opacity="1"></stop><stop offset="70%" stop-color="#1d2540" stop-opacity="1"></stop></linearGradient></defs><defs><linearGradient id="grad2_7" x1="0%" y1="0%" x2="100%" y2="100%"><stop offset="30%" stop-color="#001220" stop-opacity="1"></stop><stop offset="70%" stop-color="#1d2540" stop-opacity="1"></stop></linearGradient></defs><g transform="translate(360, 0)"><path d="M0 200.2C-32.8 191.5 -65.6 182.7 -96.5 167.1C-127.4 151.6 -156.4 129.1 -173.4 100.1C-190.4 71.1 -195.3 35.6 -200.2 0L0 0Z" fill="#0c1c30"></path><path d="M0 175.2C-28.7 167.6 -57.4 159.9 -84.4 146.3C-111.5 132.6 -136.9 113 -151.7 87.6C-166.6 62.2 -170.9 31.1 -175.2 0L0 0Z" fill="#312c4f"></path><path d="M0 150.2C-24.6 143.6 -49.2 137.1 -72.4 125.4C-95.6 113.7 -117.3 96.8 -130.1 75.1C-142.8 53.3 -146.5 26.7 -150.2 0L0 0Z" fill="#623965"></path><path d="M0 125.1C-20.5 119.7 -41 114.2 -60.3 104.5C-79.6 94.7 -97.8 80.7 -108.4 62.6C-119 44.5 -122.1 22.2 -125.1 0L0 0Z" fill="#96446e"></path><path d="M0 100.1C-16.4 95.7 -32.8 91.4 -48.2 83.6C-63.7 75.8 -78.2 64.6 -86.7 50.1C-95.2 35.6 -97.7 17.8 -100.1 0L0 0Z" fill="#c55469"></path><path d="M0 75.1C-12.3 71.8 -24.6 68.5 -36.2 62.7C-47.8 56.8 -58.7 48.4 -65 37.5C-71.4 26.7 -73.2 13.3 -75.1 0L0 0Z" fill="#e9705a"></path><path d="M0 50.1C-8.2 47.9 -16.4 45.7 -24.1 41.8C-31.9 37.9 -39.1 32.3 -43.4 25C-47.6 17.8 -48.8 8.9 -50.1 0L0 0Z" fill="#fa9845"></path><path d="M0 25C-4.1 23.9 -8.2 22.8 -12.1 20.9C-15.9 18.9 -19.6 16.1 -21.7 12.5C-23.8 8.9 -24.4 4.4 -25 0L0 0Z" fill="#fbae3c"></path></g><g transform="translate(0, 500)"><path d="M0 -200.2C33.9 -193.3 67.7 -186.4 98.5 -170.6C129.3 -154.8 157 -130 173.4 -100.1C189.9 -70.2 195 -35.1 200.2 0L0 0Z" fill="#0c1c30"></path><path d="M0 -175.2C29.6 -169.2 59.3 -163.1 86.2 -149.3C113.1 -135.4 137.3 -113.8 151.7 -87.6C166.1 -61.4 170.7 -30.7 175.2 0L0 0Z" fill="#312c4f"></path><path d="M0 -150.2C25.4 -145 50.8 -139.8 73.9 -128C97 -116.1 117.7 -97.5 130.1 -75.1C142.4 -52.6 146.3 -26.3 150.2 0L0 0Z" fill="#623965"></path><path d="M0 -125.1C21.2 -120.8 42.3 -116.5 61.6 -106.6C80.8 -96.7 98.1 -81.3 108.4 -62.6C118.7 -43.9 121.9 -21.9 125.1 0L0 0Z" fill="#96446e"></path><path d="M0 -100.1C16.9 -96.7 33.9 -93.2 49.2 -85.3C64.6 -77.4 78.5 -65 86.7 -50.1C94.9 -35.1 97.5 -17.5 100.1 0L0 0Z" fill="#c55469"></path><path d="M0 -75.1C12.7 -72.5 25.4 -69.9 36.9 -64C48.5 -58 58.9 -48.8 65 -37.5C71.2 -26.3 73.1 -13.2 75.1 0L0 0Z" fill="#e9705a"></path><path d="M0 -50.1C8.5 -48.3 16.9 -46.6 24.6 -42.7C32.3 -38.7 39.2 -32.5 43.4 -25C47.5 -17.5 48.8 -8.8 50.1 0L0 0Z" fill="#fa9845"></path><path d="M0 -25C4.2 -24.2 8.5 -23.3 12.3 -21.3C16.2 -19.3 19.6 -16.3 21.7 -12.5C23.7 -8.8 24.4 -4.4 25 0L0 0Z" fill="#fbae3c"></path></g></svg>