<svg id="visual" viewBox="0 0 1920 1620" width="1920" height="1620" xmlns="http://www.w3.org/2000/svg" xmlns:xlink="http://www.w3.org/1999/xlink" version="1.1"><rect x="0" y="0" width="1920" height="1620" fill="#001220"></rect><defs><linearGradient id="grad1_0" x1="15.6%" y1="100%" x2="100%" y2="0%"><stop offset="26.296296296296298%" stop-color="#fabb3c" stop-opacity="1"></stop><stop offset="73.7037037037037%" stop-color="#fabb3c" stop-opacity="1"></stop></linearGradient></defs><defs><linearGradient id="grad1_1" x1="15.6%" y1="100%" x2="100%" y2="0%"><stop offset="26.296296296296298%" stop-color="#fabb3c" stop-opacity="1"></stop><stop offset="73.7037037037037%" stop-color="#f78d4d" stop-opacity="1"></stop></linearGradient></defs><defs><linearGradient id="grad1_2" x1="15.6%" y1="100%" x2="100%" y2="0%"><stop offset="26.296296296296298%" stop-color="#df6761" stop-opacity="1"></stop><stop offset="73.7037037037037%" stop-color="#f78d4d" stop-opacity="1"></stop></linearGradient></defs><defs><linearGradient id="grad1_3" x1="15.6%" y1="100%" x2="100%" y2="0%"><stop offset="26.296296296296298%" stop-color="#df6761" stop-opacity="1"></stop><stop offset="73.7037037037037%" stop-color="#b64e6d" stop-opacity="1"></stop></linearGradient></defs><defs><linearGradient id="grad1_4" x1="15.6%" y1="100%" x2="100%" y2="0%"><stop offset="26.296296296296298%" stop-color="#82406c" stop-opacity="1"></stop><stop offset="73.7037037037037%" stop-color="#b64e6d" stop-opacity="1"></stop></linearGradient></defs><defs><linearGradient id="grad1_5" x1="15.6%" y1="100%" x2="100%" y2="0%"><stop offset="26.296296296296298%" stop-color="#82406c" stop-opacity="1"></stop><stop offset="73.7037037037037%" stop-color="#4c345d" stop-opacity="1"></stop></linearGradient></defs><defs><linearGradient id="grad1_6" x1="15.6%" y1="100%" x2="100%" y2="0%"><stop offset="26.296296296296298%" stop-color="#1f2541" stop-opacity="1"></stop><stop offset="73.7037037037037%" stop-color="#4c345d" stop-opacity="1"></stop></linearGradient></defs><defs><linearGradient id="grad1_7" x1="15.6%" y1="100%" x2="100%" y2="0%"><stop offset="26.296296296296298%" stop-color="#1f2541" stop-opacity="1"></stop><stop offset="73.7037037037037%" stop-color="#001220" stop-opacity="1"></stop></linearGradient></defs><defs><linearGradient id="grad2_0" x1="0%" y1="100%" x2="84.4%" y2="0%"><stop offset="26.296296296296298%" stop-color="#fabb3c" stop-opacity="1"></stop><stop offset="73.7037037037037%" stop-color="#fabb3c" stop-opacity="1"></stop></linearGradient></defs><defs><linearGradient id="grad2_1" x1="0%" y1="100%" x2="84.4%" y2="0%"><stop offset="26.296296296296298%" stop-color="#f78d4d" stop-opacity="1"></stop><stop offset="73.7037037037037%" stop-color="#fabb3c" stop-opacity="1"></stop></linearGradient></defs><defs><linearGradient id="grad2_2" x1="0%" y1="100%" x2="84.4%" y2="0%"><stop offset="26.296296296296298%" stop-color="#f78d4d" stop-opacity="1"></stop><stop offset="73.7037037037037%" stop-color="#df6761" stop-opacity="1"></stop></linearGradient></defs><defs><linearGradient id="grad2_3" x1="0%" y1="100%" x2="84.4%" y2="0%"><stop offset="26.296296296296298%" stop-color="#b64e6d" stop-opacity="1"></stop><stop offset="73.7037037037037%" stop-color="#df6761" stop-opacity="1"></stop></linearGradient></defs><defs><linearGradient id="grad2_4" x1="0%" y1="100%" x2="84.4%" y2="0%"><stop offset="26.296296296296298%" stop-color="#b64e6d" stop-opacity="1"></stop><stop offset="73.7037037037037%" stop-color="#82406c" stop-opacity="1"></stop></linearGradient></defs><defs><linearGradient id="grad2_5" x1="0%" y1="100%" x2="84.4%" y2="0%"><stop offset="26.296296296296298%" stop-color="#4c345d" stop-opacity="1"></stop><stop offset="73.7037037037037%" stop-color="#82406c" stop-opacity="1"></stop></linearGradient></defs><defs><linearGradient id="grad2_6" x1="0%" y1="100%" x2="84.4%" y2="0%"><stop offset="26.296296296296298%" stop-color="#4c345d" stop-opacity="1"></stop><stop offset="73.7037037037037%" stop-color="#1f2541" stop-opacity="1"></stop></linearGradient></defs><defs><linearGradient id="grad2_7" x1="0%" y1="100%" x2="84.4%" y2="0%"><stop offset="26.296296296296298%" stop-color="#001220" stop-opacity="1"></stop><stop offset="73.7037037037037%" stop-color="#1f2541" stop-opacity="1"></stop></linearGradient></defs><g transform="translate(1920, 1620)"><path d="M-942 0C-914.7 -162.3 -887.4 -324.6 -812.3 -469C-737.2 -613.4 -614.4 -740 -471 -815.8C-327.7 -891.7 -163.8 -916.9 0 -942L0 0Z" fill="#0d1c31"></path><path d="M-824.3 0C-800.4 -142 -776.5 -284 -710.8 -410.4C-645.1 -536.7 -537.6 -647.5 -412.1 -713.9C-286.7 -780.2 -143.4 -802.3 0 -824.3L0 0Z" fill="#342d51"></path><path d="M-706.5 0C-686.1 -121.7 -665.6 -243.4 -609.2 -351.8C-552.9 -460.1 -460.8 -555 -353.3 -611.9C-245.8 -668.8 -122.9 -687.7 0 -706.5L0 0Z" fill="#673a67"></path><path d="M-588.8 0C-571.7 -101.4 -554.6 -202.9 -507.7 -293.1C-460.8 -383.4 -384 -462.5 -294.4 -509.9C-204.8 -557.3 -102.4 -573 0 -588.8L0 0Z" fill="#9c476e"></path><path d="M-471 0C-457.4 -81.1 -443.7 -162.3 -406.2 -234.5C-368.6 -306.7 -307.2 -370 -235.5 -407.9C-163.8 -445.9 -81.9 -458.4 0 -471L0 0Z" fill="#cc5968"></path><path d="M-353.3 0C-343 -60.9 -332.8 -121.7 -304.6 -175.9C-276.5 -230 -230.4 -277.5 -176.6 -305.9C-122.9 -334.4 -61.4 -343.8 0 -353.3L0 0Z" fill="#ee7957"></path><path d="M-235.5 0C-228.7 -40.6 -221.9 -81.1 -203.1 -117.3C-184.3 -153.4 -153.6 -185 -117.8 -204C-81.9 -222.9 -41 -229.2 0 -235.5L0 0Z" fill="#fba343"></path><path d="M-117.8 0C-114.3 -20.3 -110.9 -40.6 -101.5 -58.6C-92.2 -76.7 -76.8 -92.5 -58.9 -102C-41 -111.5 -20.5 -114.6 0 -117.8L0 0Z" fill="#fabb3c"></path></g><g transform="translate(0, 0)"><path d="M942 0C896.7 151.9 851.4 303.8 778.6 449.5C705.7 595.2 605.4 734.8 471 815.8C336.7 896.9 168.3 919.5 0 942L0 0Z" fill="#0d1c31"></path><path d="M824.3 0C784.6 132.9 745 265.8 681.2 393.3C617.5 520.8 529.7 642.9 412.1 713.9C294.6 784.8 147.3 804.5 0 824.3L0 0Z" fill="#342d51"></path><path d="M706.5 0C672.5 113.9 638.5 227.8 583.9 337.1C529.3 446.4 454 551.1 353.3 611.9C252.5 672.7 126.3 689.6 0 706.5L0 0Z" fill="#673a67"></path><path d="M588.8 0C560.5 94.9 532.1 189.9 486.6 280.9C441.1 372 378.4 459.2 294.4 509.9C210.4 560.6 105.2 574.7 0 588.8L0 0Z" fill="#9c476e"></path><path d="M471 0C448.4 75.9 425.7 151.9 389.3 224.7C352.9 297.6 302.7 367.4 235.5 407.9C168.3 448.5 84.2 459.7 0 471L0 0Z" fill="#cc5968"></path><path d="M353.3 0C336.3 57 319.3 113.9 292 168.6C264.6 223.2 227 275.5 176.6 305.9C126.3 336.3 63.1 344.8 0 353.3L0 0Z" fill="#ee7957"></path><path d="M235.5 0C224.2 38 212.8 75.9 194.6 112.4C176.4 148.8 151.3 183.7 117.8 204C84.2 224.2 42.1 229.9 0 235.5L0 0Z" fill="#fba343"></path><path d="M117.8 0C112.1 19 106.4 38 97.3 56.2C88.2 74.4 75.7 91.8 58.9 102C42.1 112.1 21 114.9 0 117.8L0 0Z" fill="#fabb3c"></path></g></svg>