<svg id="visual" viewBox="0 0 900 600" width="900" height="600" xmlns="http://www.w3.org/2000/svg" xmlns:xlink="http://www.w3.org/1999/xlink" version="1.1"><rect x="0" y="0" width="900" height="600" fill="#FFFFFF"></rect><g transform="translate(448.3518546750026 283.68303785809337)"><path d="M152.1 -157.4C194.2 -146.1 223.1 -95.3 218.1 -49.4C213.1 -3.6 174.1 37.2 143.5 75.9C112.9 114.6 90.6 151.3 53.9 177.3C17.2 203.3 -34 218.6 -86.1 210.8C-138.2 203 -191.2 172 -208.4 127.5C-225.5 82.9 -206.8 24.9 -198.2 -36.9C-189.7 -98.7 -191.3 -164.3 -159.9 -177.5C-128.6 -190.7 -64.3 -151.6 -4.6 -146.1C55.1 -140.6 110.1 -168.8 152.1 -157.4" fill="#00FFB1"></path></g></svg>