<svg id="visual" viewBox="0 0 360 500" width="360" height="500" xmlns="http://www.w3.org/2000/svg" xmlns:xlink="http://www.w3.org/1999/xlink" version="1.1"><rect x="0" y="0" width="360" height="500" fill="#001220"></rect><defs><linearGradient id="grad1_0" x1="0%" y1="100%" x2="100%" y2="0%"><stop offset="30%" stop-color="#fbae3c" stop-opacity="1"></stop><stop offset="70%" stop-color="#fbae3c" stop-opacity="1"></stop></linearGradient></defs><defs><linearGradient id="grad1_1" x1="0%" y1="100%" x2="100%" y2="0%"><stop offset="30%" stop-color="#fbae3c" stop-opacity="1"></stop><stop offset="70%" stop-color="#f48350" stop-opacity="1"></stop></linearGradient></defs><defs><linearGradient id="grad1_2" x1="0%" y1="100%" x2="100%" y2="0%"><stop offset="30%" stop-color="#d96162" stop-opacity="1"></stop><stop offset="70%" stop-color="#f48350" stop-opacity="1"></stop></linearGradient></defs><defs><linearGradient id="grad1_3" x1="0%" y1="100%" x2="100%" y2="0%"><stop offset="30%" stop-color="#d96162" stop-opacity="1"></stop><stop offset="70%" stop-color="#af4b6d" stop-opacity="1"></stop></linearGradient></defs><defs><linearGradient id="grad1_4" x1="0%" y1="100%" x2="100%" y2="0%"><stop offset="30%" stop-color="#7c3e6b" stop-opacity="1"></stop><stop offset="70%" stop-color="#af4b6d" stop-opacity="1"></stop></linearGradient></defs><defs><linearGradient id="grad1_5" x1="0%" y1="100%" x2="100%" y2="0%"><stop offset="30%" stop-color="#7c3e6b" stop-opacity="1"></stop><stop offset="70%" stop-color="#49335c" stop-opacity="1"></stop></linearGradient></defs><defs><linearGradient id="grad1_6" x1="0%" y1="100%" x2="100%" y2="0%"><stop offset="30%" stop-color="#1d2540" stop-opacity="1"></stop><stop offset="70%" stop-color="#49335c" stop-opacity="1"></stop></linearGradient></defs><defs><linearGradient id="grad1_7" x1="0%" y1="100%" x2="100%" y2="0%"><stop offset="30%" stop-color="#1d2540" stop-opacity="1"></stop><stop offset="70%" stop-color="#001220" stop-opacity="1"></stop></linearGradient></defs><defs><linearGradient id="grad2_0" x1="0%" y1="100%" x2="100%" y2="0%"><stop offset="30%" stop-color="#fbae3c" stop-opacity="1"></stop><stop offset="70%" stop-color="#fbae3c" stop-opacity="1"></stop></linearGradient></defs><defs><linearGradient id="grad2_1" x1="0%" y1="100%" x2="100%" y2="0%"><stop offset="30%" stop-color="#f48350" stop-opacity="1"></stop><stop offset="70%" stop-color="#fbae3c" stop-opacity="1"></stop></linearGradient></defs><defs><linearGradient id="grad2_2" x1="0%" y1="100%" x2="100%" y2="0%"><stop offset="30%" stop-color="#f48350" stop-opacity="1"></stop><stop offset="70%" stop-color="#d96162" stop-opacity="1"></stop></linearGradient></defs><defs><linearGradient id="grad2_3" x1="0%" y1="100%" x2="100%" y2="0%"><stop offset="30%" stop-color="#af4b6d" stop-opacity="1"></stop><stop offset="70%" stop-color="#d96162" stop-opacity="1"></stop></linearGradient></defs><defs><linearGradient id="grad2_4" x1="0%" y1="100%" x2="100%" y2="0%"><stop offset="30%" stop-color="#af4b6d" stop-opacity="1"></stop><stop offset="70%" stop-color="#7c3e6b" stop-opacity="1"></stop></linearGradient></defs><defs><linearGradient id="grad2_5" x1="0%" y1="100%" x2="100%" y2="0%"><stop offset="30%" stop-color="#49335c" stop-opacity="1"></stop><stop offset="70%" stop-color="#7c3e6b" stop-opacity="1"></stop></linearGradient></defs><defs><linearGradient id="grad2_6" x1="0%" y1="100%" x2="100%" y2="0%"><stop offset="30%" stop-color="#49335c" stop-opacity="1"></stop><stop offset="70%" stop-color="#1d2540" stop-opacity="1"></stop></linearGradient></defs><defs><linearGradient id="grad2_7" x1="0%" y1="100%" x2="100%" y2="0%"><stop offset="30%" stop-color="#001220" stop-opacity="1"></stop><stop offset="70%" stop-color="#1d2540" stop-opacity="1"></stop></linearGradient></defs><g transform="translate(360, 500)"><path d="M-200.2 0C-191.5 -32.8 -182.7 -65.6 -167.1 -96.5C-151.6 -127.4 -129.1 -156.4 -100.1 -173.4C-71.1 -190.4 -35.6 -195.3 0 -200.2L0 0Z" fill="#0c1c30"></path><path d="M-175.2 0C-167.6 -28.7 -159.9 -57.4 -146.3 -84.4C-132.6 -111.5 -113 -136.9 -87.6 -151.7C-62.2 -166.6 -31.1 -170.9 0 -175.2L0 0Z" fill="#312c4f"></path><path d="M-150.2 0C-143.6 -24.6 -137.1 -49.2 -125.4 -72.4C-113.7 -95.6 -96.8 -117.3 -75.1 -130.1C-53.3 -142.8 -26.7 -146.5 0 -150.2L0 0Z" fill="#623965"></path><path d="M-125.1 0C-119.7 -20.5 -114.2 -41 -104.5 -60.3C-94.7 -79.6 -80.7 -97.8 -62.6 -108.4C-44.5 -119 -22.2 -122.1 0 -125.1L0 0Z" fill="#96446e"></path><path d="M-100.1 0C-95.7 -16.4 -91.4 -32.8 -83.6 -48.3C-75.8 -63.7 -64.6 -78.2 -50.1 -86.7C-35.6 -95.2 -17.8 -97.7 0 -100.1L0 0Z" fill="#c55469"></path><path d="M-75.1 0C-71.8 -12.3 -68.5 -24.6 -62.7 -36.2C-56.8 -47.8 -48.4 -58.7 -37.5 -65C-26.7 -71.4 -13.3 -73.2 0 -75.1L0 0Z" fill="#e9705a"></path><path d="M-50.1 0C-47.9 -8.2 -45.7 -16.4 -41.8 -24.1C-37.9 -31.9 -32.3 -39.1 -25 -43.4C-17.8 -47.6 -8.9 -48.8 0 -50.1L0 0Z" fill="#fa9845"></path><path d="M-25 0C-23.9 -4.1 -22.8 -8.2 -20.9 -12.1C-18.9 -15.9 -16.1 -19.6 -12.5 -21.7C-8.9 -23.8 -4.4 -24.4 0 -25L0 0Z" fill="#fbae3c"></path></g><g transform="translate(0, 0)"><path d="M200.2 0C193.3 33.9 186.4 67.7 170.6 98.5C154.8 129.3 130 157 100.1 173.4C70.2 189.9 35.1 195 0 200.2L0 0Z" fill="#0c1c30"></path><path d="M175.2 0C169.2 29.6 163.1 59.3 149.3 86.2C135.4 113.1 113.8 137.3 87.6 151.7C61.4 166.1 30.7 170.7 0 175.2L0 0Z" fill="#312c4f"></path><path d="M150.2 0C145 25.4 139.8 50.8 128 73.9C116.1 97 97.5 117.7 75.1 130.1C52.6 142.4 26.3 146.3 0 150.2L0 0Z" fill="#623965"></path><path d="M125.1 0C120.8 21.2 116.5 42.3 106.6 61.6C96.7 80.8 81.3 98.1 62.6 108.4C43.9 118.7 21.9 121.9 0 125.1L0 0Z" fill="#96446e"></path><path d="M100.1 0C96.7 16.9 93.2 33.9 85.3 49.2C77.4 64.6 65 78.5 50.1 86.7C35.1 94.9 17.5 97.5 0 100.1L0 0Z" fill="#c55469"></path><path d="M75.1 0C72.5 12.7 69.9 25.4 64 36.9C58 48.5 48.8 58.9 37.5 65C26.3 71.2 13.2 73.1 0 75.1L0 0Z" fill="#e9705a"></path><path d="M50.1 0C48.3 8.5 46.6 16.9 42.7 24.6C38.7 32.3 32.5 39.2 25 43.4C17.5 47.5 8.8 48.8 0 50.1L0 0Z" fill="#fa9845"></path><path d="M25 0C24.2 4.2 23.3 8.5 21.3 12.3C19.3 16.2 16.3 19.6 12.5 21.7C8.8 23.7 4.4 24.4 0 25L0 0Z" fill="#fbae3c"></path></g></svg>