<svg id="visual" viewBox="0 0 900 600" width="900" height="600" xmlns="http://www.w3.org/2000/svg" xmlns:xlink="http://www.w3.org/1999/xlink" version="1.1"><rect x="0" y="0" width="900" height="600" fill="#FFFFFF"></rect><g transform="translate(449.20164840177233 290.3898317149796)"><path d="M57.5 -104.7C71.1 -91.8 76.1 -69.4 90 -50.3C103.8 -31.3 126.4 -15.6 132.1 3.3C137.7 22.2 126.5 44.3 111.9 62.1C97.3 79.8 79.4 93.2 60.2 107.1C41 121 20.5 135.5 -1 137.2C-22.5 139 -45 127.9 -61.5 112.4C-77.9 96.9 -88.3 77 -100.2 57.5C-112.2 38 -125.6 19 -130.2 -2.7C-134.8 -24.3 -130.6 -48.7 -115.8 -63.1C-101 -77.5 -75.5 -82.1 -54.4 -90.6C-33.3 -99.1 -16.7 -111.5 2.7 -116.2C22 -120.8 44 -117.5 57.5 -104.7" fill="#00FFB1"></path></g></svg>