<svg id="visual" viewBox="0 0 900 600" width="900" height="600" xmlns="http://www.w3.org/2000/svg" xmlns:xlink="http://www.w3.org/1999/xlink" version="1.1"><rect x="0" y="0" width="900" height="600" fill="#FFFFFF"></rect><g transform="translate(453.0825541252429 302.8423877248182)"><path d="M45.3 -54.6C66.5 -36.2 96.7 -29.3 111.4 -10.2C126 8.9 124.9 40.2 108.6 57.4C92.4 74.6 60.9 77.7 32.2 87.9C3.5 98 -22.3 115.3 -48.9 114.3C-75.5 113.3 -102.7 94.2 -116.3 68.3C-129.9 42.4 -130 9.7 -124 -21.4C-117.9 -52.6 -105.9 -82.2 -84.2 -100.5C-62.6 -118.9 -31.3 -125.9 -9.6 -114.5C12.1 -103 24.1 -73.1 45.3 -54.6" fill="#00FFB1"></path></g></svg>