<svg id="visual" viewBox="0 0 1920 1080" width="1920" height="1080" xmlns="http://www.w3.org/2000/svg" xmlns:xlink="http://www.w3.org/1999/xlink" version="1.1"><path d="M0 258L24.7 254.5C49.3 251 98.7 244 147.8 246.2C197 248.3 246 259.7 295.2 260C344.3 260.3 393.7 249.7 443 244.5C492.3 239.3 541.7 239.7 590.8 241.3C640 243 689 246 738.2 243.5C787.3 241 836.7 233 886 235.7C935.3 238.3 984.7 251.7 1034 255.5C1083.3 259.3 1132.7 253.7 1181.8 245.7C1231 237.7 1280 227.3 1329.2 229C1378.3 230.7 1427.7 244.3 1477 245.8C1526.3 247.3 1575.7 236.7 1624.8 236.8C1674 237 1723 248 1772.2 249C1821.3 250 1870.7 241 1895.3 236.5L1920 232L1920 0L1895.3 0C1870.7 0 1821.3 0 1772.2 0C1723 0 1674 0 1624.8 0C1575.7 0 1526.3 0 1477 0C1427.7 0 1378.3 0 1329.2 0C1280 0 1231 0 1181.8 0C1132.7 0 1083.3 0 1034 0C984.7 0 935.3 0 886 0C836.7 0 787.3 0 738.2 0C689 0 640 0 590.8 0C541.7 0 492.3 0 443 0C393.7 0 344.3 0 295.2 0C246 0 197 0 147.8 0C98.7 0 49.3 0 24.7 0L0 0Z" fill="#8d37fe"></path><path d="M0 135L24.7 145C49.3 155 98.7 175 147.8 188.2C197 201.3 246 207.7 295.2 203.3C344.3 199 393.7 184 443 178.5C492.3 173 541.7 177 590.8 174C640 171 689 161 738.2 154.2C787.3 147.3 836.7 143.7 886 150.5C935.3 157.3 984.7 174.7 1034 175C1083.3 175.3 1132.7 158.7 1181.8 150.7C1231 142.7 1280 143.3 1329.2 153.8C1378.3 164.3 1427.7 184.7 1477 193C1526.3 201.3 1575.7 197.7 1624.8 194.5C1674 191.3 1723 188.7 1772.2 179.5C1821.3 170.3 1870.7 154.7 1895.3 146.8L1920 139L1920 0L1895.3 0C1870.7 0 1821.3 0 1772.2 0C1723 0 1674 0 1624.8 0C1575.7 0 1526.3 0 1477 0C1427.7 0 1378.3 0 1329.2 0C1280 0 1231 0 1181.8 0C1132.7 0 1083.3 0 1034 0C984.7 0 935.3 0 886 0C836.7 0 787.3 0 738.2 0C689 0 640 0 590.8 0C541.7 0 492.3 0 443 0C393.7 0 344.3 0 295.2 0C246 0 197 0 147.8 0C98.7 0 49.3 0 24.7 0L0 0Z" fill="#7b2af5"></path><path d="M0 142L24.7 133.7C49.3 125.3 98.7 108.7 147.8 108.5C197 108.3 246 124.7 295.2 132C344.3 139.3 393.7 137.7 443 136C492.3 134.3 541.7 132.7 590.8 125.7C640 118.7 689 106.3 738.2 98.7C787.3 91 836.7 88 886 96.7C935.3 105.3 984.7 125.7 1034 134.5C1083.3 143.3 1132.7 140.7 1181.8 135.2C1231 129.7 1280 121.3 1329.2 119.8C1378.3 118.3 1427.7 123.7 1477 119.2C1526.3 114.7 1575.7 100.3 1624.8 101.2C1674 102 1723 118 1772.2 128.7C1821.3 139.3 1870.7 144.7 1895.3 147.3L1920 150L1920 0L1895.3 0C1870.7 0 1821.3 0 1772.2 0C1723 0 1674 0 1624.8 0C1575.7 0 1526.3 0 1477 0C1427.7 0 1378.3 0 1329.2 0C1280 0 1231 0 1181.8 0C1132.7 0 1083.3 0 1034 0C984.7 0 935.3 0 886 0C836.7 0 787.3 0 738.2 0C689 0 640 0 590.8 0C541.7 0 492.3 0 443 0C393.7 0 344.3 0 295.2 0C246 0 197 0 147.8 0C98.7 0 49.3 0 24.7 0L0 0Z" fill="#681ced"></path><path d="M0 86L24.7 81.7C49.3 77.3 98.7 68.7 147.8 70.2C197 71.7 246 83.3 295.2 80.8C344.3 78.3 393.7 61.7 443 52.8C492.3 44 541.7 43 590.8 41.8C640 40.7 689 39.3 738.2 40.7C787.3 42 836.7 46 886 53.5C935.3 61 984.7 72 1034 79.5C1083.3 87 1132.7 91 1181.8 90.8C1231 90.7 1280 86.3 1329.2 79.7C1378.3 73 1427.7 64 1477 56.5C1526.3 49 1575.7 43 1624.8 40.7C1674 38.3 1723 39.7 1772.2 40.3C1821.3 41 1870.7 41 1895.3 41L1920 41L1920 0L1895.3 0C1870.7 0 1821.3 0 1772.2 0C1723 0 1674 0 1624.8 0C1575.7 0 1526.3 0 1477 0C1427.7 0 1378.3 0 1329.2 0C1280 0 1231 0 1181.8 0C1132.7 0 1083.3 0 1034 0C984.7 0 935.3 0 886 0C836.7 0 787.3 0 738.2 0C689 0 640 0 590.8 0C541.7 0 492.3 0 443 0C393.7 0 344.3 0 295.2 0C246 0 197 0 147.8 0C98.7 0 49.3 0 24.7 0L0 0Z" fill="#520ae4"></path></svg>