<svg id="visual" viewBox="0 0 1920 1080" width="1920" height="1080" xmlns="http://www.w3.org/2000/svg" xmlns:xlink="http://www.w3.org/1999/xlink" version="1.1"><path d="M0 820L24.7 823.5C49.3 827 98.7 834 147.8 831.8C197 829.7 246 818.3 295.2 818C344.3 817.7 393.7 828.3 443 833.5C492.3 838.7 541.7 838.3 590.8 836.7C640 835 689 832 738.2 834.5C787.3 837 836.7 845 886 842.3C935.3 839.7 984.7 826.3 1034 822.5C1083.3 818.7 1132.7 824.3 1181.8 832.3C1231 840.3 1280 850.7 1329.2 849C1378.3 847.3 1427.7 833.7 1477 832.2C1526.3 830.7 1575.7 841.3 1624.8 841.2C1674 841 1723 830 1772.2 829C1821.3 828 1870.7 837 1895.3 841.5L1920 846L1920 1081L1895.3 1081C1870.7 1081 1821.3 1081 1772.2 1081C1723 1081 1674 1081 1624.8 1081C1575.7 1081 1526.3 1081 1477 1081C1427.7 1081 1378.3 1081 1329.2 1081C1280 1081 1231 1081 1181.8 1081C1132.7 1081 1083.3 1081 1034 1081C984.7 1081 935.3 1081 886 1081C836.7 1081 787.3 1081 738.2 1081C689 1081 640 1081 590.8 1081C541.7 1081 492.3 1081 443 1081C393.7 1081 344.3 1081 295.2 1081C246 1081 197 1081 147.8 1081C98.7 1081 49.3 1081 24.7 1081L0 1081Z" fill="#8d37fe"></path><path d="M0 943L24.7 933C49.3 923 98.7 903 147.8 889.8C197 876.7 246 870.3 295.2 874.7C344.3 879 393.7 894 443 899.5C492.3 905 541.7 901 590.8 904C640 907 689 917 738.2 923.8C787.3 930.7 836.7 934.3 886 927.5C935.3 920.7 984.7 903.3 1034 903C1083.3 902.7 1132.7 919.3 1181.8 927.3C1231 935.3 1280 934.7 1329.2 924.2C1378.3 913.7 1427.7 893.3 1477 885C1526.3 876.7 1575.7 880.3 1624.8 883.5C1674 886.7 1723 889.3 1772.2 898.5C1821.3 907.7 1870.7 923.3 1895.3 931.2L1920 939L1920 1081L1895.3 1081C1870.7 1081 1821.3 1081 1772.2 1081C1723 1081 1674 1081 1624.8 1081C1575.7 1081 1526.3 1081 1477 1081C1427.7 1081 1378.3 1081 1329.2 1081C1280 1081 1231 1081 1181.8 1081C1132.7 1081 1083.3 1081 1034 1081C984.7 1081 935.3 1081 886 1081C836.7 1081 787.3 1081 738.2 1081C689 1081 640 1081 590.8 1081C541.7 1081 492.3 1081 443 1081C393.7 1081 344.3 1081 295.2 1081C246 1081 197 1081 147.8 1081C98.7 1081 49.3 1081 24.7 1081L0 1081Z" fill="#7b2af5"></path><path d="M0 936L24.7 944.3C49.3 952.7 98.7 969.3 147.8 969.5C197 969.7 246 953.3 295.2 946C344.3 938.7 393.7 940.3 443 942C492.3 943.7 541.7 945.3 590.8 952.3C640 959.3 689 971.7 738.2 979.3C787.3 987 836.7 990 886 981.3C935.3 972.7 984.7 952.3 1034 943.5C1083.3 934.7 1132.7 937.3 1181.8 942.8C1231 948.3 1280 956.7 1329.2 958.2C1378.3 959.7 1427.7 954.3 1477 958.8C1526.3 963.3 1575.7 977.7 1624.8 976.8C1674 976 1723 960 1772.2 949.3C1821.3 938.7 1870.7 933.3 1895.3 930.7L1920 928L1920 1081L1895.3 1081C1870.7 1081 1821.3 1081 1772.2 1081C1723 1081 1674 1081 1624.8 1081C1575.7 1081 1526.3 1081 1477 1081C1427.7 1081 1378.3 1081 1329.2 1081C1280 1081 1231 1081 1181.8 1081C1132.7 1081 1083.3 1081 1034 1081C984.7 1081 935.3 1081 886 1081C836.7 1081 787.3 1081 738.2 1081C689 1081 640 1081 590.8 1081C541.7 1081 492.3 1081 443 1081C393.7 1081 344.3 1081 295.2 1081C246 1081 197 1081 147.8 1081C98.7 1081 49.3 1081 24.7 1081L0 1081Z" fill="#681ced"></path><path d="M0 992L24.7 996.3C49.3 1000.7 98.7 1009.3 147.8 1007.8C197 1006.3 246 994.7 295.2 997.2C344.3 999.7 393.7 1016.3 443 1025.2C492.3 1034 541.7 1035 590.8 1036.2C640 1037.3 689 1038.7 738.2 1037.3C787.3 1036 836.7 1032 886 1024.5C935.3 1017 984.7 1006 1034 998.5C1083.3 991 1132.7 987 1181.8 987.2C1231 987.3 1280 991.7 1329.2 998.3C1378.3 1005 1427.7 1014 1477 1021.5C1526.3 1029 1575.7 1035 1624.8 1037.3C1674 1039.7 1723 1038.3 1772.2 1037.7C1821.3 1037 1870.7 1037 1895.3 1037L1920 1037L1920 1081L1895.3 1081C1870.7 1081 1821.3 1081 1772.2 1081C1723 1081 1674 1081 1624.8 1081C1575.7 1081 1526.3 1081 1477 1081C1427.7 1081 1378.3 1081 1329.2 1081C1280 1081 1231 1081 1181.8 1081C1132.7 1081 1083.3 1081 1034 1081C984.7 1081 935.3 1081 886 1081C836.7 1081 787.3 1081 738.2 1081C689 1081 640 1081 590.8 1081C541.7 1081 492.3 1081 443 1081C393.7 1081 344.3 1081 295.2 1081C246 1081 197 1081 147.8 1081C98.7 1081 49.3 1081 24.7 1081L0 1081Z" fill="#520ae4"></path></svg>