<svg id="visual" viewBox="0 0 1920 1080" width="1920" height="1080" xmlns="http://www.w3.org/2000/svg" xmlns:xlink="http://www.w3.org/1999/xlink" version="1.1"><g stroke-width="1" stroke-linejoin="bevel"><path d="M1031.3 511.9L851.7 466.9L984.3 656.1Z" fill="#191eb7" stroke="#191eb7"></path><path d="M851.7 466.9L813.7 628.1L984.3 656.1Z" fill="#191eb7" stroke="#191eb7"></path><path d="M813.7 628.1L895.7 753.4L984.3 656.1Z" fill="#2124be" stroke="#2124be"></path><path d="M851.7 466.9L718.2 588.1L813.7 628.1Z" fill="#191eb7" stroke="#191eb7"></path><path d="M813.7 628.1L743.2 768.4L895.7 753.4Z" fill="#3b3ada" stroke="#3b3ada"></path><path d="M1031.3 511.9L1001.3 355.6L851.7 466.9Z" fill="#2829c5" stroke="#2829c5"></path><path d="M1001.3 355.6L840.7 353.6L851.7 466.9Z" fill="#5656ff" stroke="#5656ff"></path><path d="M851.7 466.9L644.2 521.9L718.2 588.1Z" fill="#5656ff" stroke="#5656ff"></path><path d="M895.7 753.4L1026.3 806.4L984.3 656.1Z" fill="#4140e1" stroke="#4140e1"></path><path d="M1219.8 648.1L1214.8 471.9L1031.3 511.9Z" fill="#5150f8" stroke="#5150f8"></path><path d="M718.2 588.1L743.2 768.4L813.7 628.1Z" fill="#2f2fcc" stroke="#2f2fcc"></path><path d="M827.7 918.7L1086.3 881.7L1026.3 806.4Z" fill="#3534d3" stroke="#3534d3"></path><path d="M759.2 302.6L644.2 521.9L851.7 466.9Z" fill="#5150f8" stroke="#5150f8"></path><path d="M718.2 588.1L526.6 732.4L743.2 768.4Z" fill="#191eb7" stroke="#191eb7"></path><path d="M1219.8 648.1L1031.3 511.9L984.3 656.1Z" fill="#2829c5" stroke="#2829c5"></path><path d="M1031.3 511.9L1214.8 471.9L1001.3 355.6Z" fill="#2f2fcc" stroke="#2f2fcc"></path><path d="M872.7 147.3L759.2 302.6L840.7 353.6Z" fill="#3b3ada" stroke="#3b3ada"></path><path d="M840.7 353.6L759.2 302.6L851.7 466.9Z" fill="#3b3ada" stroke="#3b3ada"></path><path d="M1026.3 806.4L1219.8 648.1L984.3 656.1Z" fill="#5656ff" stroke="#5656ff"></path><path d="M520.6 482.9L567.6 589.1L644.2 521.9Z" fill="#2124be" stroke="#2124be"></path><path d="M644.2 521.9L567.6 589.1L718.2 588.1Z" fill="#191eb7" stroke="#191eb7"></path><path d="M827.7 918.7L1026.3 806.4L895.7 753.4Z" fill="#4c4bf0" stroke="#4c4bf0"></path><path d="M1026.3 806.4L1257.8 772.4L1219.8 648.1Z" fill="#4645e9" stroke="#4645e9"></path><path d="M671.2 862.7L827.7 918.7L743.2 768.4Z" fill="#2124be" stroke="#2124be"></path><path d="M743.2 768.4L827.7 918.7L895.7 753.4Z" fill="#2f2fcc" stroke="#2f2fcc"></path><path d="M1086.3 881.7L1257.8 772.4L1026.3 806.4Z" fill="#4c4bf0" stroke="#4c4bf0"></path><path d="M1219.8 648.1L1358.4 450.9L1214.8 471.9Z" fill="#3b3ada" stroke="#3b3ada"></path><path d="M526.6 732.4L671.2 862.7L743.2 768.4Z" fill="#5656ff" stroke="#5656ff"></path><path d="M513.6 362.6L520.6 482.9L644.2 521.9Z" fill="#2124be" stroke="#2124be"></path><path d="M567.6 589.1L526.6 732.4L718.2 588.1Z" fill="#191eb7" stroke="#191eb7"></path><path d="M1087.3 150.3L872.7 147.3L1001.3 355.6Z" fill="#2124be" stroke="#2124be"></path><path d="M1001.3 355.6L872.7 147.3L840.7 353.6Z" fill="#2829c5" stroke="#2829c5"></path><path d="M759.2 302.6L513.6 362.6L644.2 521.9Z" fill="#2829c5" stroke="#2829c5"></path><path d="M1358.4 450.9L1262.8 287.6L1214.8 471.9Z" fill="#2829c5" stroke="#2829c5"></path><path d="M1214.8 471.9L1262.8 287.6L1001.3 355.6Z" fill="#3b3ada" stroke="#3b3ada"></path><path d="M408.1 566.1L526.6 732.4L567.6 589.1Z" fill="#191eb7" stroke="#191eb7"></path><path d="M1262.8 287.6L1087.3 150.3L1001.3 355.6Z" fill="#5150f8" stroke="#5150f8"></path><path d="M1382.4 664.1L1358.4 450.9L1219.8 648.1Z" fill="#2829c5" stroke="#2829c5"></path><path d="M572.6 168.3L513.6 362.6L759.2 302.6Z" fill="#2124be" stroke="#2124be"></path><path d="M520.6 482.9L408.1 566.1L567.6 589.1Z" fill="#2f2fcc" stroke="#2f2fcc"></path><path d="M1420.4 968.7L1346.4 748.4L1257.8 772.4Z" fill="#4c4bf0" stroke="#4c4bf0"></path><path d="M1257.8 772.4L1346.4 748.4L1219.8 648.1Z" fill="#5656ff" stroke="#5656ff"></path><path d="M1097.3 1080L1192.8 938.7L1086.3 881.7Z" fill="#4645e9" stroke="#4645e9"></path><path d="M1086.3 881.7L1192.8 938.7L1257.8 772.4Z" fill="#2124be" stroke="#2124be"></path><path d="M1346.4 748.4L1382.4 664.1L1219.8 648.1Z" fill="#2f2fcc" stroke="#2f2fcc"></path><path d="M704.2 0L681.2 118.3L872.7 147.3Z" fill="#2124be" stroke="#2124be"></path><path d="M872.7 147.3L681.2 118.3L759.2 302.6Z" fill="#2829c5" stroke="#2829c5"></path><path d="M401.1 510.9L408.1 566.1L520.6 482.9Z" fill="#2124be" stroke="#2124be"></path><path d="M681.2 118.3L572.6 168.3L759.2 302.6Z" fill="#2f2fcc" stroke="#2f2fcc"></path><path d="M513.6 362.6L401.1 510.9L520.6 482.9Z" fill="#2f2fcc" stroke="#2f2fcc"></path><path d="M341.1 272.6L401.1 510.9L513.6 362.6Z" fill="#4140e1" stroke="#4140e1"></path><path d="M1262.8 287.6L1279.8 158.3L1087.3 150.3Z" fill="#4140e1" stroke="#4140e1"></path><path d="M1025.3 0L921.7 0L872.7 147.3Z" fill="#4140e1" stroke="#4140e1"></path><path d="M1405.4 308.6L1279.8 158.3L1262.8 287.6Z" fill="#3b3ada" stroke="#3b3ada"></path><path d="M749.2 1080L812.7 1080L827.7 918.7Z" fill="#3b3ada" stroke="#3b3ada"></path><path d="M827.7 918.7L1097.3 1080L1086.3 881.7Z" fill="#5150f8" stroke="#5150f8"></path><path d="M749.2 1080L827.7 918.7L671.2 862.7Z" fill="#5656ff" stroke="#5656ff"></path><path d="M1541.9 485.9L1405.4 308.6L1358.4 450.9Z" fill="#4c4bf0" stroke="#4c4bf0"></path><path d="M1358.4 450.9L1405.4 308.6L1262.8 287.6Z" fill="#4c4bf0" stroke="#4c4bf0"></path><path d="M812.7 1080L1097.3 1080L827.7 918.7Z" fill="#3b3ada" stroke="#3b3ada"></path><path d="M1192.8 938.7L1420.4 968.7L1257.8 772.4Z" fill="#5656ff" stroke="#5656ff"></path><path d="M473.6 969.7L671.2 862.7L526.6 732.4Z" fill="#4140e1" stroke="#4140e1"></path><path d="M561.6 1080L749.2 1080L671.2 862.7Z" fill="#4c4bf0" stroke="#4c4bf0"></path><path d="M1025.3 0L872.7 147.3L1087.3 150.3Z" fill="#5150f8" stroke="#5150f8"></path><path d="M681.2 118.3L499.6 0L572.6 168.3Z" fill="#2f2fcc" stroke="#2f2fcc"></path><path d="M1169.8 0L1025.3 0L1087.3 150.3Z" fill="#5656ff" stroke="#5656ff"></path><path d="M1097.3 1080L1188.8 1080L1192.8 938.7Z" fill="#4140e1" stroke="#4140e1"></path><path d="M921.7 0L704.2 0L872.7 147.3Z" fill="#4140e1" stroke="#4140e1"></path><path d="M178.5 742.4L370.1 786.4L408.1 566.1Z" fill="#2f2fcc" stroke="#2f2fcc"></path><path d="M408.1 566.1L370.1 786.4L526.6 732.4Z" fill="#2829c5" stroke="#2829c5"></path><path d="M1385.4 0L1169.8 0L1279.8 158.3Z" fill="#4645e9" stroke="#4645e9"></path><path d="M1279.8 158.3L1169.8 0L1087.3 150.3Z" fill="#2f2fcc" stroke="#2f2fcc"></path><path d="M370.1 786.4L473.6 969.7L526.6 732.4Z" fill="#2124be" stroke="#2124be"></path><path d="M1543.9 794.4L1533.9 621.1L1382.4 664.1Z" fill="#4140e1" stroke="#4140e1"></path><path d="M1382.4 664.1L1533.9 621.1L1358.4 450.9Z" fill="#5656ff" stroke="#5656ff"></path><path d="M1543.9 794.4L1382.4 664.1L1346.4 748.4Z" fill="#4140e1" stroke="#4140e1"></path><path d="M1533.9 621.1L1541.9 485.9L1358.4 450.9Z" fill="#5150f8" stroke="#5150f8"></path><path d="M1405.4 308.6L1447.4 122.3L1279.8 158.3Z" fill="#2f2fcc" stroke="#2f2fcc"></path><path d="M473.6 969.7L561.6 1080L671.2 862.7Z" fill="#2f2fcc" stroke="#2f2fcc"></path><path d="M1370.4 1080L1420.4 968.7L1192.8 938.7Z" fill="#4c4bf0" stroke="#4c4bf0"></path><path d="M572.6 168.3L341.1 272.6L513.6 362.6Z" fill="#4c4bf0" stroke="#4c4bf0"></path><path d="M178.5 742.4L302.1 910.7L370.1 786.4Z" fill="#4140e1" stroke="#4140e1"></path><path d="M313.1 103.3L341.1 272.6L572.6 168.3Z" fill="#3b3ada" stroke="#3b3ada"></path><path d="M1420.4 968.7L1543.9 794.4L1346.4 748.4Z" fill="#4645e9" stroke="#4645e9"></path><path d="M1709.5 344.6L1572.9 318.6L1541.9 485.9Z" fill="#3b3ada" stroke="#3b3ada"></path><path d="M1572.9 318.6L1447.4 122.3L1405.4 308.6Z" fill="#2829c5" stroke="#2829c5"></path><path d="M1188.8 1080L1370.4 1080L1192.8 938.7Z" fill="#2829c5" stroke="#2829c5"></path><path d="M1420.4 968.7L1608.9 881.7L1543.9 794.4Z" fill="#2829c5" stroke="#2829c5"></path><path d="M1709.5 344.6L1541.9 485.9L1774.5 521.9Z" fill="#3534d3" stroke="#3534d3"></path><path d="M1541.9 485.9L1572.9 318.6L1405.4 308.6Z" fill="#5150f8" stroke="#5150f8"></path><path d="M704.2 0L499.6 0L681.2 118.3Z" fill="#5150f8" stroke="#5150f8"></path><path d="M156.5 559.1L408.1 566.1L401.1 510.9Z" fill="#5656ff" stroke="#5656ff"></path><path d="M370.1 786.4L302.1 910.7L473.6 969.7Z" fill="#4c4bf0" stroke="#4c4bf0"></path><path d="M473.6 969.7L363.1 1080L561.6 1080Z" fill="#2124be" stroke="#2124be"></path><path d="M1513.9 0L1385.4 0L1447.4 122.3Z" fill="#5150f8" stroke="#5150f8"></path><path d="M1447.4 122.3L1385.4 0L1279.8 158.3Z" fill="#3b3ada" stroke="#3b3ada"></path><path d="M175.5 191.3L194.5 363.6L341.1 272.6Z" fill="#2f2fcc" stroke="#2f2fcc"></path><path d="M341.1 272.6L194.5 363.6L401.1 510.9Z" fill="#5150f8" stroke="#5150f8"></path><path d="M1555.9 1080L1608.9 881.7L1420.4 968.7Z" fill="#191eb7" stroke="#191eb7"></path><path d="M1543.9 794.4L1741.5 780.4L1533.9 621.1Z" fill="#191eb7" stroke="#191eb7"></path><path d="M499.6 0L313.1 103.3L572.6 168.3Z" fill="#4645e9" stroke="#4645e9"></path><path d="M302.1 910.7L363.1 1080L473.6 969.7Z" fill="#2124be" stroke="#2124be"></path><path d="M158.5 479.9L156.5 559.1L401.1 510.9Z" fill="#3b3ada" stroke="#3b3ada"></path><path d="M302.1 910.7L141.5 1080L363.1 1080Z" fill="#3534d3" stroke="#3534d3"></path><path d="M156.5 559.1L178.5 742.4L408.1 566.1Z" fill="#4645e9" stroke="#4645e9"></path><path d="M194.5 363.6L158.5 479.9L401.1 510.9Z" fill="#4140e1" stroke="#4140e1"></path><path d="M1689.5 179.3L1579.9 149.3L1572.9 318.6Z" fill="#5656ff" stroke="#5656ff"></path><path d="M1572.9 318.6L1579.9 149.3L1447.4 122.3Z" fill="#191eb7" stroke="#191eb7"></path><path d="M1579.9 149.3L1513.9 0L1447.4 122.3Z" fill="#5150f8" stroke="#5150f8"></path><path d="M1774.5 521.9L1541.9 485.9L1533.9 621.1Z" fill="#5150f8" stroke="#5150f8"></path><path d="M1579.9 149.3L1693.5 0L1513.9 0Z" fill="#4c4bf0" stroke="#4c4bf0"></path><path d="M1370.4 1080L1555.9 1080L1420.4 968.7Z" fill="#5150f8" stroke="#5150f8"></path><path d="M499.6 0L308.1 0L313.1 103.3Z" fill="#191eb7" stroke="#191eb7"></path><path d="M313.1 103.3L175.5 191.3L341.1 272.6Z" fill="#2f2fcc" stroke="#2f2fcc"></path><path d="M218.5 0L175.5 191.3L313.1 103.3Z" fill="#5656ff" stroke="#5656ff"></path><path d="M194.5 363.6L0 440.9L158.5 479.9Z" fill="#5150f8" stroke="#5150f8"></path><path d="M1789.5 911.7L1741.5 780.4L1608.9 881.7Z" fill="#2829c5" stroke="#2829c5"></path><path d="M1608.9 881.7L1741.5 780.4L1543.9 794.4Z" fill="#3b3ada" stroke="#3b3ada"></path><path d="M1741.5 780.4L1772.5 606.1L1533.9 621.1Z" fill="#4c4bf0" stroke="#4c4bf0"></path><path d="M1772.5 606.1L1774.5 521.9L1533.9 621.1Z" fill="#3534d3" stroke="#3534d3"></path><path d="M1920 339.6L1689.5 179.3L1709.5 344.6Z" fill="#3534d3" stroke="#3534d3"></path><path d="M1709.5 344.6L1689.5 179.3L1572.9 318.6Z" fill="#2829c5" stroke="#2829c5"></path><path d="M308.1 0L218.5 0L313.1 103.3Z" fill="#4c4bf0" stroke="#4c4bf0"></path><path d="M0 660.1L178.5 742.4L156.5 559.1Z" fill="#2f2fcc" stroke="#2f2fcc"></path><path d="M0 925.7L120.5 986.7L178.5 742.4Z" fill="#3534d3" stroke="#3534d3"></path><path d="M178.5 742.4L120.5 986.7L302.1 910.7Z" fill="#5150f8" stroke="#5150f8"></path><path d="M0 660.1L156.5 559.1L0 440.9Z" fill="#4140e1" stroke="#4140e1"></path><path d="M0 440.9L156.5 559.1L158.5 479.9Z" fill="#5656ff" stroke="#5656ff"></path><path d="M0 440.9L194.5 363.6L0 304.6Z" fill="#191eb7" stroke="#191eb7"></path><path d="M0 304.6L194.5 363.6L175.5 191.3Z" fill="#2f2fcc" stroke="#2f2fcc"></path><path d="M1920 772.4L1920 625.1L1772.5 606.1Z" fill="#191eb7" stroke="#191eb7"></path><path d="M1772.5 606.1L1920 625.1L1774.5 521.9Z" fill="#2829c5" stroke="#2829c5"></path><path d="M1793.5 1080L1789.5 911.7L1608.9 881.7Z" fill="#191eb7" stroke="#191eb7"></path><path d="M120.5 986.7L141.5 1080L302.1 910.7Z" fill="#4140e1" stroke="#4140e1"></path><path d="M0 1080L141.5 1080L120.5 986.7Z" fill="#3b3ada" stroke="#3b3ada"></path><path d="M0 660.1L0 743.4L178.5 742.4Z" fill="#4645e9" stroke="#4645e9"></path><path d="M1689.5 179.3L1693.5 0L1579.9 149.3Z" fill="#5150f8" stroke="#5150f8"></path><path d="M1920 150.3L1693.5 0L1689.5 179.3Z" fill="#4c4bf0" stroke="#4c4bf0"></path><path d="M0 196.3L0 304.6L175.5 191.3Z" fill="#4140e1" stroke="#4140e1"></path><path d="M0 0L0 196.3L175.5 191.3Z" fill="#4c4bf0" stroke="#4c4bf0"></path><path d="M0 743.4L0 925.7L178.5 742.4Z" fill="#4140e1" stroke="#4140e1"></path><path d="M1920 772.4L1772.5 606.1L1741.5 780.4Z" fill="#4c4bf0" stroke="#4c4bf0"></path><path d="M1774.5 521.9L1920 433.9L1709.5 344.6Z" fill="#2f2fcc" stroke="#2f2fcc"></path><path d="M1920 625.1L1920 433.9L1774.5 521.9Z" fill="#4140e1" stroke="#4140e1"></path><path d="M1789.5 911.7L1920 772.4L1741.5 780.4Z" fill="#4645e9" stroke="#4645e9"></path><path d="M1555.9 1080L1793.5 1080L1608.9 881.7Z" fill="#2f2fcc" stroke="#2f2fcc"></path><path d="M1920 982.7L1920 772.4L1789.5 911.7Z" fill="#3b3ada" stroke="#3b3ada"></path><path d="M1920 433.9L1920 339.6L1709.5 344.6Z" fill="#191eb7" stroke="#191eb7"></path><path d="M0 925.7L0 1080L120.5 986.7Z" fill="#4645e9" stroke="#4645e9"></path><path d="M1920 339.6L1920 150.3L1689.5 179.3Z" fill="#3b3ada" stroke="#3b3ada"></path><path d="M218.5 0L0 0L175.5 191.3Z" fill="#3534d3" stroke="#3534d3"></path><path d="M1793.5 1080L1920 982.7L1789.5 911.7Z" fill="#5150f8" stroke="#5150f8"></path><path d="M1793.5 1080L1920 1080L1920 982.7Z" fill="#4140e1" stroke="#4140e1"></path><path d="M1920 150.3L1920 0L1693.5 0Z" fill="#2829c5" stroke="#2829c5"></path></g></svg>