<svg id="visual" viewBox="0 0 1920 540" width="1920" height="540" xmlns="http://www.w3.org/2000/svg" xmlns:xlink="http://www.w3.org/1999/xlink" version="1.1"><path d="M0 324L35.5 325.7C71 327.3 142 330.7 213.2 338.8C284.3 347 355.7 360 426.8 358.2C498 356.3 569 339.7 640 340.3C711 341 782 359 853.2 364.3C924.3 369.7 995.7 362.3 1066.8 356C1138 349.7 1209 344.3 1280 341.8C1351 339.3 1422 339.7 1493.2 346.7C1564.3 353.7 1635.7 367.3 1706.8 364.3C1778 361.3 1849 341.7 1884.5 331.8L1920 322L1920 541L1884.5 541C1849 541 1778 541 1706.8 541C1635.7 541 1564.3 541 1493.2 541C1422 541 1351 541 1280 541C1209 541 1138 541 1066.8 541C995.7 541 924.3 541 853.2 541C782 541 711 541 640 541C569 541 498 541 426.8 541C355.7 541 284.3 541 213.2 541C142 541 71 541 35.5 541L0 541Z" fill="#8d37fe"></path><path d="M0 362L35.5 372.5C71 383 142 404 213.2 404.3C284.3 404.7 355.7 384.3 426.8 383.3C498 382.3 569 400.7 640 406.5C711 412.3 782 405.7 853.2 396.5C924.3 387.3 995.7 375.7 1066.8 378.2C1138 380.7 1209 397.3 1280 407.7C1351 418 1422 422 1493.2 418.3C1564.3 414.7 1635.7 403.3 1706.8 398.7C1778 394 1849 396 1884.5 397L1920 398L1920 541L1884.5 541C1849 541 1778 541 1706.8 541C1635.7 541 1564.3 541 1493.2 541C1422 541 1351 541 1280 541C1209 541 1138 541 1066.8 541C995.7 541 924.3 541 853.2 541C782 541 711 541 640 541C569 541 498 541 426.8 541C355.7 541 284.3 541 213.2 541C142 541 71 541 35.5 541L0 541Z" fill="#802df7"></path><path d="M0 400L35.5 402.5C71 405 142 410 213.2 415C284.3 420 355.7 425 426.8 422C498 419 569 408 640 408.3C711 408.7 782 420.3 853.2 429.3C924.3 438.3 995.7 444.7 1066.8 442.5C1138 440.3 1209 429.7 1280 423C1351 416.3 1422 413.7 1493.2 414C1564.3 414.3 1635.7 417.7 1706.8 418C1778 418.3 1849 415.7 1884.5 414.3L1920 413L1920 541L1884.5 541C1849 541 1778 541 1706.8 541C1635.7 541 1564.3 541 1493.2 541C1422 541 1351 541 1280 541C1209 541 1138 541 1066.8 541C995.7 541 924.3 541 853.2 541C782 541 711 541 640 541C569 541 498 541 426.8 541C355.7 541 284.3 541 213.2 541C142 541 71 541 35.5 541L0 541Z" fill="#7223f1"></path><path d="M0 433L35.5 440.7C71 448.3 142 463.7 213.2 465.8C284.3 468 355.7 457 426.8 454.5C498 452 569 458 640 462.2C711 466.3 782 468.7 853.2 468.7C924.3 468.7 995.7 466.3 1066.8 468.8C1138 471.3 1209 478.7 1280 481.3C1351 484 1422 482 1493.2 473.3C1564.3 464.7 1635.7 449.3 1706.8 443.8C1778 438.3 1849 442.7 1884.5 444.8L1920 447L1920 541L1884.5 541C1849 541 1778 541 1706.8 541C1635.7 541 1564.3 541 1493.2 541C1422 541 1351 541 1280 541C1209 541 1138 541 1066.8 541C995.7 541 924.3 541 853.2 541C782 541 711 541 640 541C569 541 498 541 426.8 541C355.7 541 284.3 541 213.2 541C142 541 71 541 35.5 541L0 541Z" fill="#6318ea"></path><path d="M0 474L35.5 480.2C71 486.3 142 498.7 213.2 500.7C284.3 502.7 355.7 494.3 426.8 489.5C498 484.7 569 483.3 640 482C711 480.7 782 479.3 853.2 478.5C924.3 477.7 995.7 477.3 1066.8 477.5C1138 477.7 1209 478.3 1280 478.5C1351 478.7 1422 478.3 1493.2 480C1564.3 481.7 1635.7 485.3 1706.8 486.7C1778 488 1849 487 1884.5 486.5L1920 486L1920 541L1884.5 541C1849 541 1778 541 1706.8 541C1635.7 541 1564.3 541 1493.2 541C1422 541 1351 541 1280 541C1209 541 1138 541 1066.8 541C995.7 541 924.3 541 853.2 541C782 541 711 541 640 541C569 541 498 541 426.8 541C355.7 541 284.3 541 213.2 541C142 541 71 541 35.5 541L0 541Z" fill="#520ae4"></path></svg>