<svg id="visual" viewBox="0 0 1920 600" width="1920" height="600" xmlns="http://www.w3.org/2000/svg" xmlns:xlink="http://www.w3.org/1999/xlink" version="1.1"><path d="M0 196L22.8 193C45.7 190 91.3 184 137 180.5C182.7 177 228.3 176 274 173.2C319.7 170.3 365.3 165.7 411.2 166.8C457 168 503 175 548.8 171.5C594.7 168 640.3 154 686 156.7C731.7 159.3 777.3 178.7 823 178.8C868.7 179 914.3 160 960 157C1005.7 154 1051.3 167 1097 170.3C1142.7 173.7 1188.3 167.3 1234 170C1279.7 172.7 1325.3 184.3 1371.2 187C1417 189.7 1463 183.3 1508.8 175.7C1554.7 168 1600.3 159 1646 162.5C1691.7 166 1737.3 182 1783 179.3C1828.7 176.7 1874.3 155.3 1897.2 144.7L1920 134L1920 0L1897.2 0C1874.3 0 1828.7 0 1783 0C1737.3 0 1691.7 0 1646 0C1600.3 0 1554.7 0 1508.8 0C1463 0 1417 0 1371.2 0C1325.3 0 1279.7 0 1234 0C1188.3 0 1142.7 0 1097 0C1051.3 0 1005.7 0 960 0C914.3 0 868.7 0 823 0C777.3 0 731.7 0 686 0C640.3 0 594.7 0 548.8 0C503 0 457 0 411.2 0C365.3 0 319.7 0 274 0C228.3 0 182.7 0 137 0C91.3 0 45.7 0 22.8 0L0 0Z" fill="#520ae4"></path><path d="M0 108L22.8 113.3C45.7 118.7 91.3 129.3 137 132.5C182.7 135.7 228.3 131.3 274 135.7C319.7 140 365.3 153 411.2 149.2C457 145.3 503 124.7 548.8 121.5C594.7 118.3 640.3 132.7 686 140.5C731.7 148.3 777.3 149.7 823 151.5C868.7 153.3 914.3 155.7 960 153C1005.7 150.3 1051.3 142.7 1097 143.3C1142.7 144 1188.3 153 1234 155.7C1279.7 158.3 1325.3 154.7 1371.2 145C1417 135.3 1463 119.7 1508.8 116.5C1554.7 113.3 1600.3 122.7 1646 131.5C1691.7 140.3 1737.3 148.7 1783 151.7C1828.7 154.7 1874.3 152.3 1897.2 151.2L1920 150L1920 0L1897.2 0C1874.3 0 1828.7 0 1783 0C1737.3 0 1691.7 0 1646 0C1600.3 0 1554.7 0 1508.8 0C1463 0 1417 0 1371.2 0C1325.3 0 1279.7 0 1234 0C1188.3 0 1142.7 0 1097 0C1051.3 0 1005.7 0 960 0C914.3 0 868.7 0 823 0C777.3 0 731.7 0 686 0C640.3 0 594.7 0 548.8 0C503 0 457 0 411.2 0C365.3 0 319.7 0 274 0C228.3 0 182.7 0 137 0C91.3 0 45.7 0 22.8 0L0 0Z" fill="#6318ea"></path><path d="M0 78L22.8 79.5C45.7 81 91.3 84 137 89.5C182.7 95 228.3 103 274 107.8C319.7 112.7 365.3 114.3 411.2 115.2C457 116 503 116 548.8 117.8C594.7 119.7 640.3 123.3 686 124C731.7 124.7 777.3 122.3 823 120.5C868.7 118.7 914.3 117.3 960 115C1005.7 112.7 1051.3 109.3 1097 105.3C1142.7 101.3 1188.3 96.7 1234 92C1279.7 87.3 1325.3 82.7 1371.2 80.2C1417 77.7 1463 77.3 1508.8 83.3C1554.7 89.3 1600.3 101.7 1646 102.7C1691.7 103.7 1737.3 93.3 1783 94.3C1828.7 95.3 1874.3 107.7 1897.2 113.8L1920 120L1920 0L1897.2 0C1874.3 0 1828.7 0 1783 0C1737.3 0 1691.7 0 1646 0C1600.3 0 1554.7 0 1508.8 0C1463 0 1417 0 1371.2 0C1325.3 0 1279.7 0 1234 0C1188.3 0 1142.7 0 1097 0C1051.3 0 1005.7 0 960 0C914.3 0 868.7 0 823 0C777.3 0 731.7 0 686 0C640.3 0 594.7 0 548.8 0C503 0 457 0 411.2 0C365.3 0 319.7 0 274 0C228.3 0 182.7 0 137 0C91.3 0 45.7 0 22.8 0L0 0Z" fill="#7223f1"></path><path d="M0 94L22.8 90.7C45.7 87.3 91.3 80.7 137 76.7C182.7 72.7 228.3 71.3 274 73.5C319.7 75.7 365.3 81.3 411.2 83.3C457 85.3 503 83.7 548.8 83.7C594.7 83.7 640.3 85.3 686 82.5C731.7 79.7 777.3 72.3 823 67.5C868.7 62.7 914.3 60.3 960 61C1005.7 61.7 1051.3 65.3 1097 65.5C1142.7 65.7 1188.3 62.3 1234 59.3C1279.7 56.3 1325.3 53.7 1371.2 51.8C1417 50 1463 49 1508.8 55.3C1554.7 61.7 1600.3 75.3 1646 77.7C1691.7 80 1737.3 71 1783 70.3C1828.7 69.7 1874.3 77.3 1897.2 81.2L1920 85L1920 0L1897.2 0C1874.3 0 1828.7 0 1783 0C1737.3 0 1691.7 0 1646 0C1600.3 0 1554.7 0 1508.8 0C1463 0 1417 0 1371.2 0C1325.3 0 1279.7 0 1234 0C1188.3 0 1142.7 0 1097 0C1051.3 0 1005.7 0 960 0C914.3 0 868.7 0 823 0C777.3 0 731.7 0 686 0C640.3 0 594.7 0 548.8 0C503 0 457 0 411.2 0C365.3 0 319.7 0 274 0C228.3 0 182.7 0 137 0C91.3 0 45.7 0 22.8 0L0 0Z" fill="#802df7"></path><path d="M0 32L22.8 35.7C45.7 39.3 91.3 46.7 137 50.7C182.7 54.7 228.3 55.3 274 54.7C319.7 54 365.3 52 411.2 50.2C457 48.3 503 46.7 548.8 46.3C594.7 46 640.3 47 686 45.7C731.7 44.3 777.3 40.7 823 37.3C868.7 34 914.3 31 960 34.2C1005.7 37.3 1051.3 46.7 1097 50.8C1142.7 55 1188.3 54 1234 50.5C1279.7 47 1325.3 41 1371.2 41.8C1417 42.7 1463 50.3 1508.8 51.2C1554.7 52 1600.3 46 1646 44.5C1691.7 43 1737.3 46 1783 49C1828.7 52 1874.3 55 1897.2 56.5L1920 58L1920 0L1897.2 0C1874.3 0 1828.7 0 1783 0C1737.3 0 1691.7 0 1646 0C1600.3 0 1554.7 0 1508.8 0C1463 0 1417 0 1371.2 0C1325.3 0 1279.7 0 1234 0C1188.3 0 1142.7 0 1097 0C1051.3 0 1005.7 0 960 0C914.3 0 868.7 0 823 0C777.3 0 731.7 0 686 0C640.3 0 594.7 0 548.8 0C503 0 457 0 411.2 0C365.3 0 319.7 0 274 0C228.3 0 182.7 0 137 0C91.3 0 45.7 0 22.8 0L0 0Z" fill="#8d37fe"></path></svg>