<svg id="visual" viewBox="0 0 1920 800" width="1920" height="800" xmlns="http://www.w3.org/2000/svg" xmlns:xlink="http://www.w3.org/1999/xlink" version="1.1"><path d="M0 202L45.7 217.8C91.3 233.7 182.7 265.3 274.2 285.5C365.7 305.7 457.3 314.3 548.8 298.8C640.3 283.3 731.7 243.7 823 238.3C914.3 233 1005.7 262 1097 265C1188.3 268 1279.7 245 1371.2 243.7C1462.7 242.3 1554.3 262.7 1645.8 268.3C1737.3 274 1828.7 265 1874.3 260.5L1920 256L1920 0L1874.3 0C1828.7 0 1737.3 0 1645.8 0C1554.3 0 1462.7 0 1371.2 0C1279.7 0 1188.3 0 1097 0C1005.7 0 914.3 0 823 0C731.7 0 640.3 0 548.8 0C457.3 0 365.7 0 274.2 0C182.7 0 91.3 0 45.7 0L0 0Z" fill="#520ae4"></path><path d="M0 276L45.7 267.2C91.3 258.3 182.7 240.7 274.2 226.3C365.7 212 457.3 201 548.8 205.3C640.3 209.7 731.7 229.3 823 226.3C914.3 223.3 1005.7 197.7 1097 206.3C1188.3 215 1279.7 258 1371.2 265.7C1462.7 273.3 1554.3 245.7 1645.8 241.3C1737.3 237 1828.7 256 1874.3 265.5L1920 275L1920 0L1874.3 0C1828.7 0 1737.3 0 1645.8 0C1554.3 0 1462.7 0 1371.2 0C1279.7 0 1188.3 0 1097 0C1005.7 0 914.3 0 823 0C731.7 0 640.3 0 548.8 0C457.3 0 365.7 0 274.2 0C182.7 0 91.3 0 45.7 0L0 0Z" fill="#5d14e8"></path><path d="M0 253L45.7 249.3C91.3 245.7 182.7 238.3 274.2 237.8C365.7 237.3 457.3 243.7 548.8 235C640.3 226.3 731.7 202.7 823 203.7C914.3 204.7 1005.7 230.3 1097 240.2C1188.3 250 1279.7 244 1371.2 225.7C1462.7 207.3 1554.3 176.7 1645.8 178C1737.3 179.3 1828.7 212.7 1874.3 229.3L1920 246L1920 0L1874.3 0C1828.7 0 1737.3 0 1645.8 0C1554.3 0 1462.7 0 1371.2 0C1279.7 0 1188.3 0 1097 0C1005.7 0 914.3 0 823 0C731.7 0 640.3 0 548.8 0C457.3 0 365.7 0 274.2 0C182.7 0 91.3 0 45.7 0L0 0Z" fill="#681ced"></path><path d="M0 204L45.7 197.7C91.3 191.3 182.7 178.7 274.2 168.5C365.7 158.3 457.3 150.7 548.8 156.8C640.3 163 731.7 183 823 181.5C914.3 180 1005.7 157 1097 153.2C1188.3 149.3 1279.7 164.7 1371.2 176.7C1462.7 188.7 1554.3 197.3 1645.8 195.8C1737.3 194.3 1828.7 182.7 1874.3 176.8L1920 171L1920 0L1874.3 0C1828.7 0 1737.3 0 1645.8 0C1554.3 0 1462.7 0 1371.2 0C1279.7 0 1188.3 0 1097 0C1005.7 0 914.3 0 823 0C731.7 0 640.3 0 548.8 0C457.3 0 365.7 0 274.2 0C182.7 0 91.3 0 45.7 0L0 0Z" fill="#7223f1"></path><path d="M0 131L45.7 124.7C91.3 118.3 182.7 105.7 274.2 101.8C365.7 98 457.3 103 548.8 107.8C640.3 112.7 731.7 117.3 823 120.5C914.3 123.7 1005.7 125.3 1097 131.8C1188.3 138.3 1279.7 149.7 1371.2 142.5C1462.7 135.3 1554.3 109.7 1645.8 105.3C1737.3 101 1828.7 118 1874.3 126.5L1920 135L1920 0L1874.3 0C1828.7 0 1737.3 0 1645.8 0C1554.3 0 1462.7 0 1371.2 0C1279.7 0 1188.3 0 1097 0C1005.7 0 914.3 0 823 0C731.7 0 640.3 0 548.8 0C457.3 0 365.7 0 274.2 0C182.7 0 91.3 0 45.7 0L0 0Z" fill="#7b2af5"></path><path d="M0 61L45.7 68.8C91.3 76.7 182.7 92.3 274.2 101.7C365.7 111 457.3 114 548.8 110.3C640.3 106.7 731.7 96.3 823 95C914.3 93.7 1005.7 101.3 1097 95.7C1188.3 90 1279.7 71 1371.2 68C1462.7 65 1554.3 78 1645.8 80.2C1737.3 82.3 1828.7 73.7 1874.3 69.3L1920 65L1920 0L1874.3 0C1828.7 0 1737.3 0 1645.8 0C1554.3 0 1462.7 0 1371.2 0C1279.7 0 1188.3 0 1097 0C1005.7 0 914.3 0 823 0C731.7 0 640.3 0 548.8 0C457.3 0 365.7 0 274.2 0C182.7 0 91.3 0 45.7 0L0 0Z" fill="#8431fa"></path><path d="M0 45L45.7 48.2C91.3 51.3 182.7 57.7 274.2 55.8C365.7 54 457.3 44 548.8 45.3C640.3 46.7 731.7 59.3 823 66.3C914.3 73.3 1005.7 74.7 1097 74.2C1188.3 73.7 1279.7 71.3 1371.2 70.3C1462.7 69.3 1554.3 69.7 1645.8 65.7C1737.3 61.7 1828.7 53.3 1874.3 49.2L1920 45L1920 0L1874.3 0C1828.7 0 1737.3 0 1645.8 0C1554.3 0 1462.7 0 1371.2 0C1279.7 0 1188.3 0 1097 0C1005.7 0 914.3 0 823 0C731.7 0 640.3 0 548.8 0C457.3 0 365.7 0 274.2 0C182.7 0 91.3 0 45.7 0L0 0Z" fill="#8d37fe"></path></svg>