<?xml version="1.0" standalone="no"?><svg xmlns="http://www.w3.org/2000/svg" viewBox="0 0 1440 320"><path fill="#0099ff" fill-opacity="1" d="M0,320L16,272C32,224,64,128,96,122.7C128,117,160,203,192,202.7C224,203,256,117,288,85.3C320,53,352,75,384,117.3C416,160,448,224,480,229.3C512,235,544,181,576,165.3C608,149,640,171,672,170.7C704,171,736,149,768,149.3C800,149,832,171,864,165.3C896,160,928,128,960,138.7C992,149,1024,203,1056,229.3C1088,256,1120,256,1152,256C1184,256,1216,256,1248,245.3C1280,235,1312,213,1344,192C1376,171,1408,149,1424,138.7L1440,128L1440,320L1424,320C1408,320,1376,320,1344,320C1312,320,1280,320,1248,320C1216,320,1184,320,1152,320C1120,320,1088,320,1056,320C1024,320,992,320,960,320C928,320,896,320,864,320C832,320,800,320,768,320C736,320,704,320,672,320C640,320,608,320,576,320C544,320,512,320,480,320C448,320,416,320,384,320C352,320,320,320,288,320C256,320,224,320,192,320C160,320,128,320,96,320C64,320,32,320,16,320L0,320Z"></path></svg>