<?xml version="1.0" standalone="no"?><svg xmlns="http://www.w3.org/2000/svg" viewBox="0 0 1440 320"><path fill="#FFFF" fill-opacity="1" d="M0,160L24,181.3C48,203,96,245,144,250.7C192,256,240,224,288,192C336,160,384,128,432,144C480,160,528,224,576,213.3C624,203,672,117,720,80C768,43,816,53,864,96C912,139,960,213,1008,208C1056,203,1104,117,1152,74.7C1200,32,1248,32,1296,42.7C1344,53,1392,75,1416,85.3L1440,96L1440,0L1416,0C1392,0,1344,0,1296,0C1248,0,1200,0,1152,0C1104,0,1056,0,1008,0C960,0,912,0,864,0C816,0,768,0,720,0C672,0,624,0,576,0C528,0,480,0,432,0C384,0,336,0,288,0C240,0,192,0,144,0C96,0,48,0,24,0L0,0Z"></path></svg>